<svg width="341" height="46" viewBox="0 0 341 46" fill="none" xmlns="http://www.w3.org/2000/svg">
<path d="M30.968 44H0.0560002V0.48H27C27.1707 1.71733 27.3627 2.95466 27.576 4.192C27.7893 5.42933 28.0027 6.66666 28.216 7.904H9.4V18.4H21.624L22.904 25.824H9.4V36.704H29.688L30.968 44ZM57.7845 45.216C53.5178 45.216 50.4885 43.9787 48.6965 41.504C46.9472 39.0293 46.0725 36 46.0725 32.416V12.96H55.5445V32.032C55.5445 33.7387 55.9498 35.0613 56.7605 36C57.6138 36.896 58.8085 37.344 60.3445 37.344C61.3258 37.344 62.3925 37.1093 63.5445 36.64C64.7392 36.128 65.8272 35.552 66.8085 34.912V12.96H76.2165V44H71.3525L68.9845 41.056C67.6192 42.208 65.8912 43.1893 63.8005 44C61.7525 44.8107 59.7472 45.216 57.7845 45.216ZM111.793 12.96L113.713 20.512C112.263 20.512 110.641 20.8533 108.849 21.536C107.057 22.2187 105.351 23.264 103.729 24.672V44H94.3215V13.024H99.1215L101.937 17.12C103.217 16.0533 104.753 15.0933 106.545 14.24C108.337 13.3867 110.087 12.96 111.793 12.96ZM143.417 12.064C148.537 12.064 152.59 13.5573 155.577 16.544C158.606 19.488 160.121 23.5413 160.121 28.704C160.121 33.7387 158.521 37.664 155.321 40.48C152.121 43.296 148.004 44.704 142.969 44.704C138.02 44.704 134.073 43.2747 131.129 40.416C128.228 37.5573 126.777 33.5467 126.777 28.384C126.777 23.3067 128.313 19.3173 131.385 16.416C134.457 13.5147 138.468 12.064 143.417 12.064ZM143.097 36.832C145.273 36.832 147.022 36.192 148.345 34.912C149.71 33.5893 150.393 31.52 150.393 28.704C150.393 26.0587 149.796 23.9467 148.601 22.368C147.406 20.7467 145.721 19.936 143.545 19.936C141.369 19.936 139.641 20.64 138.361 22.048C137.124 23.456 136.505 25.5467 136.505 28.32C136.505 31.0507 137.06 33.1627 138.169 34.656C139.278 36.1067 140.921 36.832 143.097 36.832ZM173.22 0.48H209.06L210.34 7.904H195.748V44H186.34V7.904H173.22V0.48ZM240.084 12.064C245.204 12.064 249.258 13.5573 252.244 16.544C255.274 19.488 256.788 23.5413 256.788 28.704C256.788 33.7387 255.188 37.664 251.988 40.48C248.788 43.296 244.671 44.704 239.636 44.704C234.687 44.704 230.74 43.2747 227.796 40.416C224.895 37.5573 223.444 33.5467 223.444 28.384C223.444 23.3067 224.98 19.3173 228.052 16.416C231.124 13.5147 235.135 12.064 240.084 12.064ZM239.764 36.832C241.94 36.832 243.69 36.192 245.012 34.912C246.378 33.5893 247.06 31.52 247.06 28.704C247.06 26.0587 246.463 23.9467 245.268 22.368C244.074 20.7467 242.388 19.936 240.212 19.936C238.036 19.936 236.308 20.64 235.028 22.048C233.791 23.456 233.172 25.5467 233.172 28.32C233.172 31.0507 233.727 33.1627 234.836 34.656C235.946 36.1067 237.588 36.832 239.764 36.832ZM284.672 45.216C280.405 45.216 277.376 43.9787 275.584 41.504C273.835 39.0293 272.96 36 272.96 32.416V12.96H282.432V32.032C282.432 33.7387 282.837 35.0613 283.648 36C284.501 36.896 285.696 37.344 287.232 37.344C288.213 37.344 289.28 37.1093 290.432 36.64C291.627 36.128 292.715 35.552 293.696 34.912V12.96H303.104V44H298.24L295.872 41.056C294.507 42.208 292.779 43.1893 290.688 44C288.64 44.8107 286.635 45.216 284.672 45.216ZM338.681 12.96L340.601 20.512C339.15 20.512 337.529 20.8533 335.737 21.536C333.945 22.2187 332.238 23.264 330.617 24.672V44H321.209V13.024H326.009L328.825 17.12C330.105 16.0533 331.641 15.0933 333.433 14.24C335.225 13.3867 336.974 12.96 338.681 12.96Z" fill="#1E1E1E"/>
</svg>
