<svg width="512" height="147" viewBox="0 0 512 147" fill="none" xmlns="http://www.w3.org/2000/svg">
<rect width="512" height="147" fill="#D9D9D9"/>
<rect width="512" height="147" fill="black" fill-opacity="0.2"/>
<path d="M181.968 98H151.056V54.48H178C178.171 55.7173 178.363 56.9547 178.576 58.192C178.789 59.4293 179.003 60.6667 179.216 61.904H160.4V72.4H172.624L173.904 79.824H160.4V90.704H180.688L181.968 98ZM208.784 99.216C204.518 99.216 201.488 97.9787 199.696 95.504C197.947 93.0293 197.072 90 197.072 86.416V66.96H206.544V86.032C206.544 87.7387 206.95 89.0613 207.76 90C208.614 90.896 209.808 91.344 211.344 91.344C212.326 91.344 213.392 91.1093 214.544 90.64C215.739 90.128 216.827 89.552 217.808 88.912V66.96H227.216V98H222.352L219.984 95.056C218.619 96.208 216.891 97.1893 214.8 98C212.752 98.8107 210.747 99.216 208.784 99.216ZM262.793 66.96L264.713 74.512C263.263 74.512 261.641 74.8533 259.849 75.536C258.057 76.2187 256.351 77.264 254.729 78.672V98H245.321V67.024H250.121L252.937 71.12C254.217 70.0533 255.753 69.0933 257.545 68.24C259.337 67.3867 261.087 66.96 262.793 66.96ZM294.417 66.064C299.537 66.064 303.59 67.5573 306.577 70.544C309.606 73.488 311.121 77.5413 311.121 82.704C311.121 87.7387 309.521 91.664 306.321 94.48C303.121 97.296 299.004 98.704 293.969 98.704C289.02 98.704 285.073 97.2747 282.129 94.416C279.228 91.5573 277.777 87.5467 277.777 82.384C277.777 77.3067 279.313 73.3173 282.385 70.416C285.457 67.5147 289.468 66.064 294.417 66.064ZM294.097 90.832C296.273 90.832 298.022 90.192 299.345 88.912C300.71 87.5893 301.393 85.52 301.393 82.704C301.393 80.0587 300.796 77.9467 299.601 76.368C298.406 74.7467 296.721 73.936 294.545 73.936C292.369 73.936 290.641 74.64 289.361 76.048C288.124 77.456 287.505 79.5467 287.505 82.32C287.505 85.0507 288.06 87.1627 289.169 88.656C290.278 90.1067 291.921 90.832 294.097 90.832ZM324.22 54.48H360.06L361.34 61.904H346.748V98H337.34V61.904H324.22V54.48ZM391.084 66.064C396.204 66.064 400.258 67.5573 403.244 70.544C406.274 73.488 407.788 77.5413 407.788 82.704C407.788 87.7387 406.188 91.664 402.988 94.48C399.788 97.296 395.671 98.704 390.636 98.704C385.687 98.704 381.74 97.2747 378.796 94.416C375.895 91.5573 374.444 87.5467 374.444 82.384C374.444 77.3067 375.98 73.3173 379.052 70.416C382.124 67.5147 386.135 66.064 391.084 66.064ZM390.764 90.832C392.94 90.832 394.69 90.192 396.012 88.912C397.378 87.5893 398.06 85.52 398.06 82.704C398.06 80.0587 397.463 77.9467 396.268 76.368C395.074 74.7467 393.388 73.936 391.212 73.936C389.036 73.936 387.308 74.64 386.028 76.048C384.791 77.456 384.172 79.5467 384.172 82.32C384.172 85.0507 384.727 87.1627 385.836 88.656C386.946 90.1067 388.588 90.832 390.764 90.832ZM435.672 99.216C431.405 99.216 428.376 97.9787 426.584 95.504C424.835 93.0293 423.96 90 423.96 86.416V66.96H433.432V86.032C433.432 87.7387 433.837 89.0613 434.648 90C435.501 90.896 436.696 91.344 438.232 91.344C439.213 91.344 440.28 91.1093 441.432 90.64C442.627 90.128 443.715 89.552 444.696 88.912V66.96H454.104V98H449.24L446.872 95.056C445.507 96.208 443.779 97.1893 441.688 98C439.64 98.8107 437.635 99.216 435.672 99.216ZM489.681 66.96L491.601 74.512C490.15 74.512 488.529 74.8533 486.737 75.536C484.945 76.2187 483.238 77.264 481.617 78.672V98H472.209V67.024H477.009L479.825 71.12C481.105 70.0533 482.641 69.0933 484.433 68.24C486.225 67.3867 487.974 66.96 489.681 66.96Z" fill="#1E1E1E"/>
<path fill-rule="evenodd" clip-rule="evenodd" d="M90 133.5H85L117.5 33L134 91L90 133.5Z" fill="#1A75BC"/>
<path d="M30.5 118L85 133.5L73.5 76.5L17.1116 64L30.5 118Z" fill="#F59220"/>
<path d="M57.5 15.5L15.5 57.5L17.1116 64L115 31L57.5 15.5Z" fill="#F59220"/>
</svg>
