<svg width="570" height="147" viewBox="0 0 570 147" fill="none" xmlns="http://www.w3.org/2000/svg">
<path d="M173.456 80.272H160.4V98H151.056V54.48H176.848C177.061 55.6747 177.275 56.912 177.488 58.192C177.701 59.472 177.893 60.7093 178.064 61.904H160.4V72.912H172.24L173.456 80.272ZM206.14 49.104H215.74L209.212 60.304H202.044L206.14 49.104ZM207.484 66.064C212.348 66.064 215.954 67.664 218.3 70.864C220.647 74.064 221.82 77.8613 221.82 82.256V85.328H201.596C202.023 87.0773 202.898 88.4427 204.22 89.424C205.586 90.4053 207.314 90.896 209.404 90.896C210.812 90.896 212.114 90.7467 213.308 90.448C214.546 90.1067 215.868 89.5947 217.276 88.912L220.028 95.568C218.45 96.7627 216.53 97.5947 214.268 98.064C212.007 98.5333 210.215 98.768 208.892 98.768C203.644 98.768 199.42 97.36 196.22 94.544C193.063 91.6853 191.484 87.6747 191.484 82.512C191.484 77.4773 192.956 73.488 195.9 70.544C198.844 67.5573 202.706 66.064 207.484 66.064ZM207.228 73.872C205.778 73.872 204.54 74.3413 203.516 75.28C202.492 76.2187 201.831 77.5413 201.532 79.248H212.86C212.562 77.6267 211.943 76.3253 211.004 75.344C210.066 74.3627 208.807 73.872 207.228 73.872ZM255.731 66.96L257.651 74.512C256.2 74.512 254.579 74.8533 252.787 75.536C250.995 76.2187 249.288 77.264 247.667 78.672V98H238.259V67.024H243.059L245.875 71.12C247.155 70.0533 248.691 69.0933 250.483 68.24C252.275 67.3867 254.024 66.96 255.731 66.96ZM282.171 57.424C282.171 58.8747 281.637 60.112 280.571 61.136C279.547 62.1173 278.309 62.608 276.859 62.608C275.408 62.608 274.192 62.1173 273.211 61.136C272.229 60.112 271.739 58.8747 271.739 57.424C271.739 55.9733 272.229 54.736 273.211 53.712C274.192 52.688 275.408 52.176 276.859 52.176C278.309 52.176 279.547 52.688 280.571 53.712C281.637 54.736 282.171 55.9733 282.171 57.424ZM281.595 66.96V98H272.187V66.96H281.595ZM309.913 91.216C310.895 91.216 311.897 91.0027 312.921 90.576C313.945 90.1067 314.927 89.4453 315.865 88.592V84.688H310.489C309.252 84.688 308.292 85.0507 307.609 85.776C306.927 86.5013 306.585 87.3547 306.585 88.336C306.585 89.104 306.905 89.7867 307.545 90.384C308.185 90.9387 308.975 91.216 309.913 91.216ZM311.961 66.064C315.844 66.064 319.023 67.1733 321.497 69.392C324.015 71.6107 325.273 74.4693 325.273 77.968V98H320.665L318.617 95.44C317.551 96.3787 316.228 97.168 314.649 97.808C313.113 98.448 311.535 98.768 309.913 98.768C306.073 98.768 303.215 97.8293 301.337 95.952C299.503 94.032 298.585 91.536 298.585 88.464C298.585 85.2213 299.673 82.768 301.849 81.104C304.068 79.44 306.948 78.608 310.489 78.608H315.801C315.716 77.2853 315.247 76.24 314.393 75.472C313.583 74.704 312.495 74.32 311.129 74.32C309.807 74.32 308.335 74.512 306.713 74.896C305.092 75.28 303.684 75.7493 302.489 76.304L299.993 68.88C301.316 68.112 303.215 67.4507 305.689 66.896C308.164 66.3413 310.255 66.064 311.961 66.064ZM354.948 78.352C357.551 79.2907 359.983 80.592 362.244 82.256C364.506 83.8773 365.636 86.0533 365.636 88.784C365.636 91.8987 364.548 94.352 362.372 96.144C360.196 97.8933 356.975 98.768 352.708 98.768C351.386 98.768 349.508 98.4693 347.076 97.872C344.687 97.2747 342.703 96.3787 341.124 95.184L343.876 88.528C345.284 89.2107 346.735 89.7653 348.228 90.192C349.764 90.6187 351.087 90.832 352.196 90.832C353.476 90.832 354.436 90.6613 355.076 90.32C355.716 89.936 356.036 89.488 356.036 88.976C356.036 88.2933 355.695 87.696 355.012 87.184C354.372 86.6293 353.327 86.1173 351.876 85.648C349.359 84.8373 346.97 83.664 344.708 82.128C342.447 80.592 341.316 78.48 341.316 75.792C341.316 72.72 342.426 70.3307 344.644 68.624C346.906 66.9173 350.02 66.064 353.988 66.064C355.268 66.064 356.996 66.3413 359.172 66.896C361.391 67.4507 363.311 68.3253 364.932 69.52L362.18 76.176C360.772 75.4933 359.407 74.96 358.084 74.576C356.762 74.1493 355.439 73.936 354.116 73.936C353.092 73.936 352.324 74.128 351.812 74.512C351.3 74.8533 351.044 75.3013 351.044 75.856C351.044 76.2827 351.322 76.688 351.876 77.072C352.474 77.4133 353.498 77.84 354.948 78.352ZM405.271 80.272H392.215V98H382.871V54.48H408.663C408.876 55.6747 409.09 56.912 409.303 58.192C409.516 59.472 409.708 60.7093 409.879 61.904H392.215V72.912H404.055L405.271 80.272ZM435.715 49.104H445.251L438.787 60.304H431.619L435.715 49.104ZM434.883 91.216C435.865 91.216 436.867 91.0027 437.891 90.576C438.915 90.1067 439.897 89.4453 440.835 88.592V84.688H435.459C434.222 84.688 433.262 85.0507 432.579 85.776C431.897 86.5013 431.555 87.3547 431.555 88.336C431.555 89.104 431.875 89.7867 432.515 90.384C433.155 90.9387 433.945 91.216 434.883 91.216ZM436.931 66.064C440.814 66.064 443.993 67.1733 446.467 69.392C448.985 71.6107 450.243 74.4693 450.243 77.968V98H445.635L443.587 95.44C442.521 96.3787 441.198 97.168 439.619 97.808C438.083 98.448 436.505 98.768 434.883 98.768C431.043 98.768 428.185 97.8293 426.307 95.952C424.473 94.032 423.555 91.536 423.555 88.464C423.555 85.2213 424.643 82.768 426.819 81.104C429.038 79.44 431.918 78.608 435.459 78.608H440.771C440.686 77.2853 440.217 76.24 439.363 75.472C438.553 74.704 437.465 74.32 436.099 74.32C434.777 74.32 433.305 74.512 431.683 74.896C430.062 75.28 428.654 75.7493 427.459 76.304L424.963 68.88C426.286 68.112 428.185 67.4507 430.659 66.896C433.134 66.3413 435.225 66.064 436.931 66.064ZM483.182 73.936C481.092 73.936 479.385 74.7467 478.062 76.368C476.782 77.9467 476.142 79.9947 476.142 82.512C476.142 85.0293 476.782 87.056 478.062 88.592C479.385 90.0853 481.092 90.832 483.182 90.832C484.505 90.832 485.7 90.6827 486.766 90.384C487.833 90.0853 489.092 89.5947 490.542 88.912L493.166 95.568C491.63 96.7627 489.838 97.5947 487.79 98.064C485.742 98.5333 484.057 98.768 482.734 98.768C477.7 98.768 473.71 97.3173 470.766 94.416C467.865 91.5147 466.414 87.5467 466.414 82.512C466.414 77.4773 467.865 73.488 470.766 70.544C473.71 67.5573 477.7 66.064 482.734 66.064C484.057 66.064 485.721 66.2987 487.726 66.768C489.774 67.2373 491.588 68.0693 493.166 69.264L490.542 75.92C489.092 75.2373 487.833 74.7467 486.766 74.448C485.7 74.1067 484.505 73.936 483.182 73.936ZM519.236 57.424C519.236 58.8747 518.702 60.112 517.636 61.136C516.612 62.1173 515.374 62.608 513.924 62.608C512.473 62.608 511.257 62.1173 510.276 61.136C509.294 60.112 508.804 58.8747 508.804 57.424C508.804 55.9733 509.294 54.736 510.276 53.712C511.257 52.688 512.473 52.176 513.924 52.176C515.374 52.176 516.612 52.688 517.636 53.712C518.702 54.736 519.236 55.9733 519.236 57.424ZM518.66 66.96V98H509.252V66.96H518.66ZM546.53 52.816V98H537.186V53.52L546.53 52.816Z" fill="#1E1E1E"/>
<path fill-rule="evenodd" clip-rule="evenodd" d="M90 133.5H85L117.5 33L134 91L90 133.5Z" fill="#1A75BC"/>
<path d="M30.5 118L85 133.5L73.5 76.5L17.1116 64L30.5 118Z" fill="#F59220"/>
<path d="M57.5 15.5L15.5 57.5L17.1116 64L115 31L57.5 15.5Z" fill="#F59220"/>
</svg>
