<svg width="460" height="454" viewBox="0 0 460 454" fill="none" xmlns="http://www.w3.org/2000/svg">
<path d="M323.433 175.608C323.576 175.075 323.259 174.527 322.725 174.384L314.024 172.053C313.49 171.91 312.942 172.226 312.799 172.759C312.656 173.292 312.973 173.84 313.507 173.983L321.241 176.055L319.172 183.777C319.029 184.31 319.346 184.858 319.88 185.001C320.414 185.144 320.962 184.828 321.105 184.295L323.433 175.608ZM321.965 174.484L124.467 288.298L125.468 290.029L322.967 176.215L321.965 174.484Z" fill="black"/>
<path d="M155.567 412.827C155.701 412.404 155.991 412.264 156.436 412.405C156.658 412.475 156.877 412.557 157.092 412.65C157.308 412.743 157.515 412.821 157.715 412.885C157.938 412.955 158.177 412.897 158.433 412.708C158.689 412.52 158.882 412.337 159.012 412.158C159.659 411.36 160.275 410.539 160.862 409.697C161.426 408.848 162.013 408.006 162.622 407.172C163.745 405.57 164.886 403.986 166.046 402.42C167.207 400.855 168.37 399.278 169.538 397.69C170.096 396.937 170.654 396.184 171.213 395.431C171.749 394.671 172.296 393.914 172.855 393.161C173.021 392.945 173.236 392.732 173.499 392.522C173.755 392.334 174.039 392.289 174.35 392.388L177.307 393.253C177.307 396.02 177.37 398.855 177.498 401.76C177.603 404.658 177.704 407.529 177.801 410.376C177.821 411.312 177.862 412.182 177.924 412.985C177.964 413.781 178.005 414.651 178.047 415.595C178.045 415.986 178.07 416.447 178.121 416.977C178.165 417.53 178.198 418.005 178.218 418.403C178.253 418.831 178.464 419.13 178.85 419.302C179.214 419.466 179.562 419.601 179.896 419.707C180.118 419.778 180.308 419.875 180.465 419.998C180.621 420.121 180.653 420.327 180.561 420.616C180.505 420.794 180.399 420.932 180.246 421.03C180.085 421.151 179.904 421.179 179.704 421.115C179.304 420.988 178.907 420.85 178.514 420.701C178.099 420.544 177.68 420.399 177.257 420.265C176.234 419.94 175.211 419.615 174.188 419.29C173.165 418.966 172.139 418.652 171.108 418.349C170.857 418.294 170.597 418.224 170.331 418.139C170.057 418.076 169.797 418.006 169.553 417.929C169.375 417.872 169.274 417.767 169.25 417.612C169.203 417.45 169.205 417.292 169.254 417.136C169.304 416.981 169.394 416.85 169.526 416.745C169.635 416.633 169.779 416.605 169.957 416.661C170.312 416.774 170.668 416.887 171.024 417C171.351 417.129 171.692 417.249 172.048 417.362C172.559 417.525 172.9 417.339 173.07 416.805C173.141 416.583 173.185 416.328 173.204 416.04C173.193 415.767 173.189 415.509 173.193 415.266C173.202 412.012 173.187 408.715 173.15 405.374C173.113 402.032 173.074 398.813 173.032 395.715C171.14 398.272 169.307 400.873 167.534 403.517C165.738 406.154 164.009 408.812 162.347 411.491C162.181 411.781 161.997 412.09 161.795 412.417C161.593 412.745 161.442 413.064 161.343 413.375C161.222 413.753 161.262 413.974 161.462 414.038C161.655 414.123 161.907 414.216 162.219 414.315C162.419 414.378 162.626 414.419 162.841 414.439C163.026 414.473 163.218 414.522 163.418 414.585C163.596 414.642 163.76 414.743 163.909 414.888C164.03 415.049 164.054 415.24 163.984 415.463C163.856 415.863 163.603 416.003 163.225 415.883C162.914 415.784 162.606 415.674 162.302 415.553C161.975 415.425 161.656 415.311 161.345 415.212C161.034 415.113 160.733 415.018 160.444 414.926C160.155 414.834 159.863 414.754 159.566 414.684C158.988 414.501 158.392 414.336 157.777 414.189C157.14 414.036 156.533 413.868 155.954 413.684C155.777 413.628 155.657 413.504 155.595 413.313C155.527 413.144 155.517 412.982 155.567 412.827Z" fill="black"/>
<path d="M117.894 361.749C118.123 361.455 118.386 361.422 118.68 361.652C119.214 362.067 119.736 362.517 120.245 363.003C120.769 363.469 121.307 363.918 121.86 364.347C122.412 364.777 122.988 365.196 123.588 365.603C124.183 365.978 124.757 366.381 125.31 366.81C125.438 366.911 125.495 367.028 125.478 367.163C125.447 367.317 125.396 367.439 125.324 367.531C125.094 367.825 124.841 367.865 124.565 367.65C124.381 367.507 124.213 367.361 124.062 367.214C123.91 367.067 123.752 366.929 123.586 366.8C123.365 366.628 123.169 366.594 122.999 366.698C122.811 366.788 122.645 366.924 122.501 367.108L113.948 378.059C113.804 378.243 113.664 378.459 113.529 378.709C113.379 378.976 113.433 379.211 113.691 379.411C113.93 379.597 114.193 379.773 114.48 379.936C114.766 380.1 115.038 380.282 115.296 380.483C115.407 380.569 115.496 380.683 115.563 380.824C115.612 380.951 115.586 381.078 115.486 381.207C115.299 381.446 115.057 381.509 114.76 381.397C114.529 381.276 114.296 381.138 114.06 380.985C113.792 380.835 113.55 380.691 113.333 380.552C112.617 380.142 111.904 379.765 111.196 379.421C110.455 379.081 109.714 378.741 108.973 378.401C108.918 378.358 108.863 378.315 108.807 378.272C108.738 378.247 108.684 378.221 108.648 378.192C108.371 377.977 108.32 377.759 108.492 377.538C110.215 375.332 111.955 373.123 113.712 370.912C115.454 368.72 117.187 366.521 118.91 364.314C119.169 363.983 119.26 363.714 119.185 363.508C119.095 363.319 118.932 363.149 118.697 362.995C118.443 362.827 118.197 362.65 117.957 362.464C117.699 362.263 117.678 362.025 117.894 361.749ZM104.833 382.053C105.278 381.483 105.877 381.151 106.631 381.058C107.367 380.95 108.029 381.125 108.618 381.584C109.189 382.028 109.521 382.627 109.614 383.379C109.708 384.132 109.532 384.793 109.086 385.363C108.627 385.951 108.027 386.283 107.288 386.358C106.534 386.451 105.871 386.276 105.301 385.832C104.711 385.373 104.379 384.775 104.304 384.037C104.197 383.303 104.373 382.641 104.833 382.053Z" fill="black"/>
<path d="M74.2196 316.809C75.1525 316.232 76.0397 315.958 76.8811 315.987C77.7027 316.028 78.4753 316.277 79.1988 316.735C79.9222 317.193 80.5834 317.772 81.1822 318.472C81.7686 319.152 82.2956 319.868 82.763 320.622C83.0705 321.118 83.3222 321.634 83.5182 322.171C83.7141 322.708 83.9001 323.252 84.0763 323.801C84.1596 324.024 84.249 324.257 84.3446 324.499C84.4204 324.754 84.5259 324.991 84.6612 325.209C84.4325 325.46 84.0994 325.83 83.6619 326.32C83.1922 326.803 82.7424 327.273 82.3125 327.73C81.8503 328.18 81.5101 328.473 81.2918 328.608C81.0734 328.743 80.8915 328.759 80.7458 328.657C80.6002 328.555 80.4781 328.425 80.3797 328.266C80.2321 328.028 80.2108 327.795 80.3156 327.565C80.5479 327.01 80.837 326.503 81.1828 326.042C81.5286 325.581 81.7832 325.04 81.9465 324.418C82.072 323.956 82.1336 323.37 82.1314 322.658C82.0971 321.939 81.9507 321.371 81.6924 320.954C81.1389 320.062 80.5185 319.527 79.831 319.348C79.1313 319.15 78.325 319.332 77.4119 319.897C76.7966 320.277 76.3974 320.784 76.2143 321.419C76.0312 322.053 75.9554 322.772 75.9869 323.575C76.0062 324.359 76.06 325.176 76.1483 326.026C76.2168 326.889 76.2371 327.741 76.2091 328.581C76.1688 329.401 75.9876 330.172 75.6656 330.892C75.3237 331.624 74.7458 332.242 73.932 332.745C72.9197 333.371 71.9238 333.602 70.9443 333.439C69.9647 333.277 69.0616 332.861 68.235 332.193C67.3961 331.504 66.706 330.724 66.1648 329.851C65.9188 329.455 65.7087 329.05 65.5346 328.636C65.3604 328.223 65.2359 327.778 65.161 327.304C65.1098 327.088 65.0416 326.801 64.9564 326.442C64.839 326.076 64.7249 325.804 64.6142 325.625C64.4543 325.368 64.2708 325.138 64.0637 324.937C64.5948 324.554 65.1137 324.151 65.6202 323.728C66.1145 323.285 66.6334 322.883 67.1768 322.519L67.2661 322.464C67.4523 322.322 67.6579 322.277 67.883 322.33C68.0759 322.375 68.2277 322.487 68.3384 322.665C68.4614 322.864 68.5139 323.037 68.496 323.185C68.4658 323.314 68.3959 323.466 68.2864 323.644C67.8706 324.257 67.4847 324.852 67.1285 325.429C66.7402 325.998 66.5065 326.595 66.4274 327.22C66.336 327.825 66.5239 328.505 66.9913 329.258C67.4833 330.051 68.1538 330.446 69.0028 330.443C69.8518 330.439 70.6237 330.223 71.3184 329.793C71.8742 329.45 72.2214 328.947 72.36 328.285C72.4987 327.624 72.5518 327.001 72.5194 326.418C72.4652 325.711 72.3916 324.906 72.2985 324.003C72.1931 323.081 72.1558 322.158 72.1866 321.233C72.2174 320.309 72.3853 319.451 72.6903 318.659C72.9754 317.879 73.4852 317.263 74.2196 316.809Z" fill="black"/>
<path d="M58.2871 257.995C58.653 257.921 58.8732 258.067 58.9476 258.433C59.0824 259.096 59.1852 259.777 59.256 260.477C59.3497 261.173 59.4663 261.863 59.6058 262.549C59.7452 263.235 59.9099 263.928 60.0997 264.627C60.3078 265.3 60.4815 265.979 60.621 266.665C60.6535 266.825 60.6196 266.95 60.5192 267.042C60.3959 267.139 60.2771 267.198 60.1628 267.222C59.7969 267.296 59.5791 267.161 59.5093 266.818C59.4629 266.59 59.4301 266.37 59.4112 266.16C59.3922 265.949 59.3618 265.741 59.32 265.535C59.2642 265.261 59.1378 265.108 58.9409 265.076C58.7394 265.022 58.5243 265.018 58.2956 265.064L44.6771 267.823C44.4484 267.869 44.2015 267.943 43.9364 268.044C43.6484 268.15 43.5369 268.363 43.602 268.683C43.6624 268.98 43.7481 269.284 43.8589 269.595C43.9697 269.906 44.0576 270.222 44.1227 270.542C44.1506 270.679 44.1442 270.823 44.1035 270.974C44.0581 271.102 43.9554 271.183 43.7953 271.215C43.498 271.275 43.2734 271.166 43.1215 270.887C43.0246 270.645 42.9369 270.389 42.8582 270.119C42.7521 269.831 42.662 269.564 42.588 269.317C42.3109 268.54 42.0157 267.79 41.7022 267.068C41.3612 266.328 41.0202 265.587 40.6792 264.847C40.6652 264.778 40.6513 264.71 40.6373 264.641C40.6005 264.577 40.5775 264.522 40.5682 264.477C40.4985 264.134 40.6008 263.934 40.8752 263.879C43.6195 263.323 46.3775 262.776 49.1493 262.239C51.8983 261.706 54.6449 261.161 57.3891 260.606C57.8008 260.522 58.0452 260.377 58.1223 260.171C58.1766 259.97 58.1644 259.734 58.0858 259.465C58.0025 259.172 57.9306 258.877 57.8702 258.58C57.8051 258.26 57.9441 258.065 58.2871 257.995ZM35.1599 264.929C35.8689 264.786 36.5398 264.924 37.1727 265.343C37.8009 265.739 38.1895 266.304 38.3382 267.035C38.4823 267.744 38.3448 268.415 37.9257 269.047C37.5067 269.68 36.9427 270.068 36.2337 270.211C35.5019 270.359 34.831 270.222 34.221 269.798C33.5881 269.378 33.1996 268.814 33.0555 268.105C32.9067 267.374 33.0442 266.703 33.4679 266.093C33.8641 265.466 34.4281 265.077 35.1599 264.929Z" fill="black"/>
<path d="M57.8094 196.498C58.1322 196.548 58.3936 196.766 58.5934 197.151C58.7738 197.509 58.9053 197.955 58.9878 198.487C59.0508 198.993 59.0775 199.504 59.0678 200.022C59.0581 200.54 59.0264 200.972 58.9726 201.318C58.7036 203.047 58.1713 204.193 57.3756 204.754C56.5568 205.312 55.3288 205.464 53.6917 205.21C51.7087 204.903 49.7275 204.584 47.7481 204.254C45.7687 203.924 43.7874 203.605 41.8044 203.298L41.557 204.889C41.5212 205.119 41.5714 205.328 41.7077 205.514C41.821 205.697 41.8668 205.857 41.8453 205.996C41.8095 206.226 41.6762 206.324 41.4457 206.288C41.3534 206.274 41.1877 206.201 40.9484 206.069C40.7091 205.938 40.5584 205.844 40.4964 205.787C40.3688 205.696 40.2989 205.615 40.2866 205.542C40.2743 205.469 40.2789 205.363 40.3004 205.225L40.6338 203.081L36.933 202.508C36.6998 201.881 36.3257 201.174 35.8107 200.386C35.2957 199.598 34.8018 198.978 34.3288 198.527C34.2243 198.44 34.1233 198.33 34.0259 198.197C33.9055 198.06 33.8579 197.911 33.883 197.749C33.9403 197.381 34.1286 197.233 34.4479 197.306L41.3492 198.481L41.9032 194.919C41.9318 194.735 42.0031 194.58 42.1168 194.456C42.2111 194.306 42.362 194.246 42.5695 194.279C43.0076 194.346 43.189 194.622 43.1137 195.107L42.5597 198.669L55.8997 200.807C56.2686 200.864 56.6368 200.85 57.0042 200.765C57.3521 200.654 57.5601 200.379 57.6282 199.941C57.6892 199.549 57.7155 199.152 57.7073 198.749C57.7027 198.323 57.6466 197.925 57.5389 197.554C57.5108 197.432 57.4808 197.321 57.449 197.221C57.3977 197.095 57.3811 196.975 57.399 196.86C57.442 196.583 57.5789 196.462 57.8094 196.498Z" fill="black"/>
<path d="M69.7548 135.852C69.347 135.625 68.8461 135.374 68.2524 135.097C67.6586 134.82 67.0511 134.616 66.43 134.484C65.7997 134.321 65.2101 134.3 64.6611 134.422C64.1121 134.544 63.6784 134.89 63.3601 135.461C63.0531 136.011 62.9637 136.602 63.092 137.234C63.2113 137.834 63.4667 138.43 63.8581 139.021C64.2292 139.601 64.6649 140.137 65.1654 140.629C65.6454 141.109 66.087 141.515 66.4902 141.846C66.6835 141.5 66.8813 141.169 67.0836 140.854C67.2769 140.508 67.4645 140.172 67.6465 139.846C68.3855 138.521 69.0883 137.19 69.7548 135.852ZM78.9712 135.21C79.0324 135.244 79.1128 135.315 79.2124 135.424C79.303 135.501 79.3675 135.577 79.406 135.652C79.6527 135.976 79.8822 136.45 80.0944 137.075C80.2862 137.689 80.409 138.212 80.4628 138.642C80.7411 140.585 80.3799 142.453 79.3793 144.247C78.4811 145.856 77.3657 147.065 76.0333 147.872C74.6804 148.669 73.216 149.043 71.6399 148.994C70.0638 148.945 68.4804 148.479 66.8897 147.594C65.299 146.71 64.0318 145.605 63.0881 144.28C62.1354 142.922 61.6059 141.453 61.4994 139.872C61.3839 138.26 61.7867 136.628 62.7077 134.978C63.7651 133.083 65.1322 131.854 66.809 131.291C68.4858 130.728 70.2929 130.986 72.2303 132.063C72.7605 132.357 72.8892 132.749 72.6163 133.238C72.116 134.135 71.6055 135.026 71.0848 135.911C70.5641 136.796 70.0537 137.687 69.5534 138.583C69.1895 139.235 68.8257 139.887 68.4618 140.539C68.098 141.192 67.7443 141.849 67.4009 142.513C67.9786 142.914 68.5835 143.29 69.2157 143.642C69.7867 143.959 70.4995 144.262 71.3541 144.55C72.22 144.818 73.1053 145.003 74.01 145.106C74.9261 145.188 75.771 145.11 76.5447 144.873C77.298 144.624 77.8793 144.133 78.2886 143.4C78.8003 142.483 79.0941 141.645 79.1701 140.887C79.2575 140.108 79.1929 139.337 78.9763 138.576C78.7598 137.815 78.4571 136.993 78.0684 136.109C78.0209 136.003 77.9939 135.908 77.9872 135.824C77.9715 135.708 77.9921 135.6 78.0489 135.498C78.1285 135.355 78.2636 135.257 78.4542 135.203C78.6357 135.117 78.8081 135.119 78.9712 135.21Z" fill="black"/>
<path d="M168.223 48.1703C167.882 47.2513 167.417 46.4655 166.827 45.8128C166.237 45.1601 165.532 44.7362 164.713 44.541C163.908 44.3158 163.013 44.385 162.028 44.7486C161.809 44.8294 161.59 44.9102 161.372 44.991C161.145 45.0499 160.922 45.1197 160.703 45.2005C160.155 45.4025 159.825 45.5865 159.713 45.7525C159.592 45.8965 159.645 46.2749 159.872 46.8875C160.423 48.3754 160.979 49.8742 161.538 51.3839C162.097 52.8936 162.663 54.3883 163.236 55.8681C163.67 56.0314 164.122 56.0759 164.592 56.0019C165.055 55.9059 165.494 55.7812 165.909 55.6277C167.048 55.2075 167.833 54.6068 168.265 53.8255C168.711 53.0142 168.899 52.1116 168.829 51.1175C168.782 50.1154 168.579 49.133 168.223 48.1703ZM172.914 46.3266C173.449 47.7707 173.635 49.0451 173.472 50.1499C173.301 51.2328 172.871 52.1875 172.182 53.0139C171.515 53.8323 170.659 54.5459 169.616 55.1549C168.586 55.7339 167.459 56.2497 166.233 56.7021C165.839 56.8476 165.437 56.9711 165.026 57.0728C164.616 57.1745 164.206 57.2762 163.796 57.3778C164.388 58.9751 164.979 60.5723 165.571 62.1696C166.155 63.7449 166.742 65.3312 167.334 66.9285C167.399 67.1035 167.501 67.2774 167.639 67.45C167.8 67.6146 167.99 67.6565 168.208 67.5757C168.493 67.4707 168.763 67.3588 169.017 67.2399C169.294 67.113 169.574 66.997 169.859 66.892C170.012 66.8354 170.165 66.8785 170.317 67.0212C170.491 67.1559 170.599 67.2779 170.639 67.3873C170.696 67.5405 170.686 67.681 170.609 67.8089C170.532 67.9368 170.428 68.025 170.296 68.0735C170.012 68.1786 169.723 68.2727 169.431 68.3558C169.138 68.439 168.834 68.5262 168.52 68.6174C168.066 68.7352 167.609 68.879 167.149 69.0487C166.69 69.2183 166.241 69.384 165.803 69.5456C164.752 69.9334 163.725 70.35 162.72 70.7954C162.487 70.9061 162.251 71.006 162.01 71.0948C161.799 71.1975 161.573 71.2933 161.333 71.3822C161.114 71.463 160.947 71.4498 160.833 71.3428C160.71 71.2139 160.621 71.0728 160.564 70.9197C160.499 70.7446 160.52 70.6001 160.627 70.4859C160.726 70.3499 160.852 70.2537 161.006 70.1971C161.203 70.1244 161.404 70.0626 161.609 70.0118C161.814 69.9609 162.026 69.8951 162.245 69.8143C162.288 69.7982 162.343 69.778 162.409 69.7537C162.475 69.7295 162.529 69.7093 162.573 69.6931C162.871 69.5581 162.982 69.3184 162.904 68.9741C162.848 68.6217 162.779 68.336 162.698 68.1172L155.537 48.7862C155.472 48.6112 155.357 48.3677 155.191 48.0556C155.018 47.7217 154.796 47.5923 154.525 47.6674C154.459 47.6916 154.394 47.7158 154.328 47.7401C154.284 47.7562 154.24 47.7724 154.197 47.7886C153.978 47.8693 153.763 47.9611 153.552 48.0638C153.341 48.1664 153.126 48.2582 152.907 48.339C152.754 48.3955 152.577 48.3864 152.375 48.3117C152.195 48.2289 152.076 48.1109 152.02 47.9578C151.963 47.8046 151.976 47.6382 152.059 47.4584C152.163 47.2706 152.292 47.1484 152.445 47.0918C152.686 47.0029 152.931 46.925 153.18 46.858C153.451 46.7829 153.711 46.7119 153.959 46.6449C154.471 46.4809 154.972 46.321 155.461 46.1652C155.965 45.9793 156.457 45.7975 156.939 45.6198C157.946 45.2481 158.934 44.8586 159.903 44.4513C160.885 44.0139 161.88 43.6095 162.887 43.2378C163.85 42.8823 164.832 42.6443 165.832 42.5237C166.846 42.3732 167.811 42.3903 168.725 42.5751C169.64 42.7599 170.458 43.1544 171.179 43.7586C171.923 44.3547 172.501 45.2107 172.914 46.3266Z" fill="black"/>
<path d="M233.332 45.4367C233.332 44.97 233.309 44.41 233.262 43.7567C233.216 43.1033 233.099 42.4733 232.912 41.8667C232.749 41.2367 232.481 40.7117 232.107 40.2917C231.734 39.8717 231.221 39.6617 230.567 39.6617C229.937 39.6617 229.377 39.8717 228.887 40.2917C228.421 40.6883 228.024 41.2017 227.697 41.8317C227.371 42.4383 227.114 43.08 226.927 43.7567C226.741 44.41 226.601 44.9933 226.507 45.5067C226.904 45.5067 227.289 45.5183 227.662 45.5417C228.059 45.5417 228.444 45.5417 228.817 45.5417C230.334 45.5417 231.839 45.5067 233.332 45.4367ZM238.372 53.1717C238.372 53.2417 238.349 53.3467 238.302 53.4867C238.279 53.6033 238.244 53.6967 238.197 53.7667C238.034 54.14 237.731 54.5717 237.287 55.0617C236.844 55.5283 236.447 55.89 236.097 56.1467C234.534 57.3367 232.726 57.9317 230.672 57.9317C228.829 57.9317 227.231 57.5467 225.877 56.7767C224.524 55.9833 223.486 54.8867 222.762 53.4867C222.039 52.0867 221.677 50.4767 221.677 48.6567C221.677 46.8367 222.027 45.1917 222.727 43.7217C223.451 42.2283 224.477 41.05 225.807 40.1867C227.161 39.3 228.782 38.8567 230.672 38.8567C232.842 38.8567 234.581 39.4517 235.887 40.6417C237.194 41.8317 237.847 43.535 237.847 45.7517C237.847 46.3583 237.567 46.6617 237.007 46.6617C235.981 46.6617 234.954 46.65 233.927 46.6267C232.901 46.6033 231.874 46.5917 230.847 46.5917C230.101 46.5917 229.354 46.5917 228.607 46.5917C227.861 46.5917 227.114 46.6033 226.367 46.6267C226.297 47.3267 226.262 48.0383 226.262 48.7617C226.262 49.415 226.344 50.185 226.507 51.0717C226.694 51.9583 226.962 52.8217 227.312 53.6617C227.686 54.5017 228.164 55.2017 228.747 55.7617C229.331 56.2983 230.042 56.5667 230.882 56.5667C231.932 56.5667 232.807 56.415 233.507 56.1117C234.231 55.8083 234.872 55.3767 235.432 54.8167C235.992 54.2567 236.564 53.5917 237.147 52.8217C237.217 52.7283 237.287 52.6583 237.357 52.6117C237.451 52.5417 237.556 52.5067 237.672 52.5067C237.836 52.5067 237.987 52.5767 238.127 52.7167C238.291 52.8333 238.372 52.985 238.372 53.1717Z" fill="black"/>
<path d="M300.738 57.2964C300.657 57.5152 300.515 57.6988 300.31 57.8472C300.136 57.9819 299.929 58.0047 299.688 57.9159C299.316 57.7785 299.121 57.5324 299.103 57.1776C299.077 56.8447 299.056 56.464 299.041 56.0355C299.055 55.5932 298.995 55.1853 298.859 54.812C298.746 54.4468 298.481 54.1874 298.065 54.0339C297.846 53.9531 297.622 53.9201 297.393 53.9349C297.163 53.9497 296.937 53.9904 296.713 54.0571C295.834 54.2799 295.01 54.759 294.24 55.4945C293.499 56.2162 292.906 56.9795 292.458 57.7843L292.47 57.7515C292.17 58.5611 291.87 59.3706 291.571 60.1802C291.271 60.9897 290.971 61.7993 290.671 62.6089L289.175 66.6457C289.037 67.0177 289.047 67.2947 289.203 67.4768C289.382 67.667 289.617 67.8037 289.91 67.8869C290.232 67.9562 290.514 68.0353 290.755 68.1242C291.061 68.2373 291.154 68.458 291.032 68.7862C290.903 69.1363 290.663 69.2467 290.312 69.1174C289.656 68.875 289.003 68.6217 288.354 68.3574C287.706 68.0931 287.053 67.8398 286.397 67.5974C285.718 67.3469 285.035 67.1074 284.349 66.8788C283.654 66.6721 282.956 66.4395 282.256 66.1809C282.102 66.1244 282.013 66.0293 281.988 65.8956C281.971 65.7401 281.983 65.6076 282.023 65.4982C282.145 65.17 282.381 65.0706 282.731 65.1999C282.95 65.2807 283.154 65.3684 283.343 65.463C283.562 65.5437 283.781 65.6245 284 65.7053C284.262 65.8023 284.47 65.7794 284.622 65.6367C284.775 65.494 284.891 65.3132 284.972 65.0944C285.548 63.5409 286.127 61.9765 286.711 60.4012C287.295 58.8258 287.874 57.2614 288.45 55.7079C288.604 55.2922 288.758 54.8764 288.912 54.4607C289.066 54.045 289.22 53.6293 289.374 53.2136C289.463 52.9729 289.547 52.6804 289.624 52.336C289.702 51.9916 289.713 51.6599 289.657 51.3408C289.623 51.0298 289.442 50.8136 289.114 50.6924C288.895 50.6116 288.664 50.5637 288.42 50.5485C288.207 50.5196 287.98 50.4606 287.739 50.3718C287.411 50.2506 287.308 50.0259 287.429 49.6977C287.518 49.457 287.7 49.3373 287.973 49.3387C288.32 49.3424 288.662 49.3939 288.998 49.4932C289.343 49.5707 289.68 49.6331 290.011 49.6806C290.32 49.72 290.724 49.7698 291.225 49.8301C291.733 49.8685 292.222 49.9247 292.693 49.9988C293.193 50.0591 293.563 50.1336 293.804 50.2225C294.132 50.3437 294.329 50.5529 294.393 50.8502C294.418 50.9838 294.386 51.2706 294.298 51.7106C294.218 52.1287 294.122 52.5536 294.012 52.9855C293.902 53.4174 293.814 53.7209 293.749 53.8959C294.744 53.293 295.787 52.7951 296.878 52.4019C297.97 52.0088 299.106 52.0304 300.288 52.4667C300.595 52.5798 300.888 52.7626 301.168 53.0151C301.477 53.2537 301.611 53.5643 301.569 53.9467C301.524 54.4028 301.413 54.9712 301.236 55.6518C301.066 56.3106 300.901 56.8588 300.738 57.2964Z" fill="black"/>
<path d="M349.548 105.926C349.305 106.21 349.041 106.23 348.757 105.987C348.243 105.548 347.735 105.083 347.234 104.592C346.735 104.135 346.228 103.686 345.714 103.246C345.217 102.822 344.704 102.398 344.175 101.976C343.63 101.572 343.101 101.15 342.586 100.71C342.462 100.604 342.411 100.484 342.434 100.35C342.472 100.198 342.537 100.069 342.628 99.9628C342.856 99.6972 343.112 99.6858 343.396 99.9284C343.555 100.065 343.707 100.21 343.852 100.364C344.011 100.501 344.171 100.637 344.33 100.774C344.596 101.001 344.828 101 345.026 100.77C346.302 99.2826 347.579 97.7953 348.855 96.308C350.15 94.8359 351.435 93.3563 352.712 91.869C353.122 91.3909 353.503 90.8573 353.855 90.268C354.225 89.6939 354.42 89.1084 354.44 88.5117C354.478 87.9301 354.187 87.3739 353.566 86.8432C353.176 86.5095 352.647 86.3024 351.978 86.2217C351.327 86.1562 350.666 86.1742 349.994 86.2756C349.341 86.3921 348.799 86.5579 348.368 86.773L340.298 96.1746C340.162 96.334 340.05 96.4996 339.964 96.6716C339.896 96.8588 339.959 97.0357 340.154 97.2026C340.296 97.3239 340.438 97.4452 340.58 97.5665C340.755 97.6853 340.913 97.8053 341.055 97.9267C341.143 98.0025 341.202 98.1137 341.23 98.2604C341.257 98.407 341.233 98.5246 341.157 98.6131C340.869 98.9495 340.582 98.9964 340.299 98.7538C339.802 98.3292 339.321 97.8868 338.855 97.4268C338.421 96.9642 337.948 96.5131 337.433 96.0733C336.901 95.6183 336.338 95.1824 335.742 94.7654C335.18 94.3458 334.624 93.901 334.074 93.4309C333.95 93.3248 333.899 93.2047 333.922 93.0707C333.96 92.9189 334.025 92.7899 334.116 92.6837C334.344 92.4181 334.6 92.4067 334.884 92.6493C335.043 92.7858 335.195 92.9311 335.34 93.0853C335.499 93.2218 335.668 93.3658 335.845 93.5175C336.093 93.7298 336.281 93.798 336.407 93.7221C336.534 93.6462 336.696 93.4932 336.894 93.263L340.199 89.412C341.126 88.332 342.053 87.252 342.98 86.1719C343.907 85.0919 344.834 84.0119 345.761 82.9318C345.928 82.7371 346.084 82.5019 346.229 82.2262C346.388 81.9328 346.335 81.6724 346.069 81.4449C345.892 81.2933 345.707 81.1505 345.514 81.0165C345.339 80.8978 345.163 80.7625 344.986 80.6109C344.88 80.5199 344.771 80.396 344.659 80.2393C344.581 80.08 344.602 79.9296 344.724 79.7879C344.815 79.6817 344.919 79.6324 345.035 79.6399C345.152 79.6475 345.262 79.6803 345.366 79.7384C345.589 79.8369 345.805 79.9608 346.016 80.1099C346.226 80.259 346.435 80.3916 346.643 80.5079C347.18 80.8136 347.715 81.103 348.25 81.3759C348.817 81.6462 349.376 81.909 349.926 82.1641C350.027 82.1894 350.121 82.2235 350.207 82.2664C350.308 82.2917 350.394 82.3346 350.465 82.3953C350.607 82.5166 350.617 82.7556 350.496 83.1121C350.392 83.4839 350.246 83.8506 350.059 84.2122C349.889 84.589 349.76 84.847 349.671 84.9861C350.581 84.9655 351.551 85.0891 352.582 85.3567C353.628 85.6067 354.506 86.0349 355.215 86.6415C356.403 87.6576 357.196 88.5966 357.594 89.4587C358.01 90.336 358.055 91.2501 357.731 92.2009C357.422 93.1341 356.766 94.1849 355.763 95.3535C354.578 96.7345 353.384 98.108 352.18 99.4738C350.977 100.84 349.783 102.213 348.598 103.594C348.446 103.771 348.385 103.95 348.415 104.129C348.479 104.306 348.599 104.47 348.776 104.622C348.9 104.728 349.023 104.818 349.145 104.891C349.284 104.98 349.416 105.077 349.54 105.183C349.788 105.395 349.791 105.643 349.548 105.926Z" fill="black"/>
<path d="M383.91 146.798C384.834 146.203 385.77 145.63 386.717 145.077C387.684 144.512 388.663 143.968 389.654 143.444C389.045 142.688 388.325 142.02 387.494 141.441C386.695 140.871 385.837 140.507 384.92 140.349C384.004 140.191 383.056 140.384 382.077 140.928C381.67 141.155 381.26 141.45 380.847 141.812C380.446 142.196 380.163 142.62 379.995 143.087C379.86 143.563 379.935 144.055 380.219 144.565C380.423 144.931 380.741 145.262 381.173 145.556C381.624 145.839 382.095 146.084 382.586 146.292C383.087 146.521 383.529 146.689 383.91 146.798ZM385.618 154.097C385.537 154.142 385.422 154.153 385.275 154.128C385.139 154.123 385.023 154.108 384.928 154.08C383.841 153.857 383.019 153.246 382.462 152.248C381.973 151.371 381.775 150.561 381.866 149.816C381.958 149.07 382.332 148.328 382.989 147.59C381.932 147.323 380.989 146.926 380.16 146.399C379.343 145.892 378.656 145.14 378.099 144.141C377.701 143.428 377.45 142.62 377.347 141.716C377.275 140.822 377.399 139.966 377.717 139.148C378.047 138.35 378.599 137.736 379.374 137.305C380.149 136.875 380.94 136.688 381.748 136.747C382.587 136.814 383.391 137.034 384.161 137.407C384.951 137.769 385.664 138.187 386.302 138.66C387.104 139.282 387.835 139.97 388.496 140.724C389.178 141.466 389.859 142.208 390.541 142.951L390.663 142.883C391.03 142.679 391.514 142.396 392.114 142.036C392.747 141.684 393.334 141.277 393.878 140.815C394.442 140.341 394.859 139.843 395.128 139.319C395.417 138.785 395.408 138.242 395.101 137.692C394.749 137.06 394.247 136.592 393.596 136.287C392.956 136.002 392.273 135.927 391.547 136.064C391.341 136.125 391.141 136.197 390.946 136.278C390.771 136.349 390.581 136.414 390.374 136.476C390.025 136.616 389.693 136.548 389.377 136.269C389.093 136 388.872 135.723 388.713 135.437C388.519 135.091 388.403 134.715 388.364 134.31C388.345 133.893 388.55 133.566 388.978 133.327C389.141 133.237 389.296 133.178 389.441 133.15C389.618 133.132 389.794 133.114 389.971 133.096C390.928 132.991 391.772 133.162 392.503 133.61C393.234 134.058 393.877 134.635 394.431 135.342C394.997 136.068 395.479 136.788 395.877 137.501C396.809 139.172 397.128 140.797 396.833 142.376C396.538 143.954 395.514 145.231 393.76 146.206L389.141 148.775C388.559 149.072 387.962 149.39 387.35 149.73C386.77 150.08 386.196 150.439 385.627 150.808C385.303 151.042 385.012 151.311 384.754 151.614C384.516 151.907 384.517 152.267 384.755 152.695C384.915 152.98 385.107 153.18 385.331 153.295C385.567 153.431 385.731 153.581 385.822 153.744C385.867 153.825 385.855 153.899 385.785 153.964C385.715 154.03 385.659 154.074 385.618 154.097Z" fill="black"/>
<path d="M401.71 218.479C401.341 218.536 401.126 218.369 401.065 217.977C400.961 217.309 400.892 216.635 400.857 215.955C400.799 215.279 400.718 214.607 400.614 213.939C400.511 213.27 400.382 212.593 400.228 211.909C400.055 211.251 399.914 210.576 399.807 209.884C399.785 209.746 399.825 209.622 399.926 209.512C400.054 209.421 400.175 209.367 400.29 209.349C400.636 209.295 400.841 209.476 400.906 209.891C400.935 210.076 400.952 210.262 400.957 210.45C400.99 210.657 401.02 210.853 401.049 211.038C401.092 211.315 401.198 211.463 401.366 211.485C401.558 211.502 401.769 211.493 402 211.457L412.272 209.866C412.895 209.769 413.571 209.641 414.302 209.48C415.059 209.339 415.706 209.097 416.243 208.754C416.718 208.468 417.023 208.15 417.157 207.798C417.318 207.466 417.358 207.035 417.275 206.505C417.175 205.859 416.821 205.253 416.213 204.686C415.605 204.119 415.04 203.675 414.518 203.355C414.071 203.519 413.606 203.638 413.122 203.713C412.664 203.807 412.205 203.89 411.744 203.962C409.968 204.237 408.193 204.512 406.417 204.787C404.642 205.062 402.866 205.337 401.091 205.612C400.814 205.655 400.602 205.735 400.455 205.853C400.312 205.993 400.263 206.213 400.31 206.513C400.335 206.674 400.37 206.822 400.414 206.957C400.462 207.115 400.499 207.274 400.524 207.436C400.578 207.782 400.432 207.981 400.086 208.035C399.717 208.092 399.502 207.925 399.441 207.533C399.341 206.887 399.273 206.225 399.238 205.545C399.184 204.893 399.105 204.232 399.001 203.563C398.897 202.895 398.77 202.23 398.62 201.568C398.447 200.91 398.308 200.247 398.204 199.578C398.179 199.417 398.219 199.293 398.323 199.206C398.451 199.115 398.572 199.061 398.688 199.043C398.941 199.004 399.107 199.084 399.186 199.285C399.287 199.481 399.346 199.708 399.362 199.966C399.382 200.246 399.403 200.455 399.425 200.593C399.475 200.916 399.574 201.101 399.724 201.149C399.896 201.193 400.12 201.194 400.397 201.151C402.103 200.887 403.808 200.611 405.51 200.323C407.24 200.055 408.958 199.789 410.664 199.525C411.286 199.428 411.963 199.3 412.694 199.14C413.451 198.999 414.098 198.757 414.635 198.414C415.13 198.101 415.433 197.771 415.544 197.423C415.655 197.075 415.668 196.625 415.582 196.071C415.535 195.771 415.328 195.426 414.96 195.034C414.615 194.639 414.228 194.274 413.798 193.939C413.368 193.604 413.022 193.351 412.759 193.179C410.545 193.522 408.331 193.865 406.118 194.208C403.904 194.551 401.691 194.894 399.477 195.237C399.2 195.28 398.989 195.36 398.841 195.477C398.698 195.618 398.65 195.838 398.696 196.137C398.721 196.299 398.758 196.458 398.806 196.616C398.854 196.774 398.891 196.934 398.916 197.095C398.966 197.418 398.818 197.606 398.472 197.66C398.104 197.717 397.89 197.561 397.833 197.192C397.729 196.523 397.648 195.851 397.59 195.175C397.536 194.523 397.457 193.862 397.353 193.193C397.245 192.502 397.115 191.814 396.961 191.129C396.811 190.468 396.682 189.791 396.574 189.099C396.549 188.938 396.587 188.802 396.688 188.692C396.816 188.601 396.937 188.547 397.053 188.529C397.398 188.476 397.602 188.645 397.663 189.037C397.691 189.221 397.709 189.408 397.714 189.596C397.747 189.803 397.779 190.011 397.811 190.218C397.861 190.541 398.051 190.7 398.381 190.696C398.715 190.716 398.997 190.707 399.228 190.672C401.418 190.332 403.609 189.993 405.799 189.653C407.99 189.314 410.18 188.975 412.371 188.635C412.624 188.596 412.896 188.518 413.185 188.403C413.474 188.287 413.59 188.045 413.532 187.676C413.493 187.422 413.428 187.161 413.339 186.891C413.277 186.641 413.226 186.389 413.186 186.136C413.165 185.997 413.178 185.854 413.226 185.705C413.3 185.575 413.418 185.498 413.579 185.473C413.741 185.448 413.863 185.476 413.947 185.558C414.034 185.662 414.096 185.759 414.133 185.847C414.272 186.133 414.378 186.435 414.451 186.754C414.525 187.074 414.608 187.38 414.7 187.672C414.813 187.938 414.977 188.314 415.195 188.8C415.415 189.309 415.623 189.808 415.817 190.297C416.034 190.783 416.157 191.118 416.186 191.302C416.229 191.579 416.133 191.795 415.897 191.949C415.668 192.15 415.387 192.312 415.051 192.435C414.739 192.554 414.441 192.683 414.155 192.821C414.976 193.544 415.624 194.294 416.099 195.07C416.597 195.843 416.93 196.771 417.099 197.855C417.235 198.731 417.195 199.611 416.978 200.495C416.765 201.401 416.3 202.134 415.584 202.694C416.425 203.39 417.12 204.144 417.672 204.956C418.223 205.768 418.581 206.704 418.746 207.765C418.993 209.355 418.959 210.577 418.643 211.429C418.327 212.28 417.727 212.905 416.844 213.301C415.988 213.717 414.822 214.039 413.346 214.268C411.571 214.543 409.795 214.818 408.02 215.093C406.244 215.368 404.469 215.643 402.693 215.919C402.325 215.976 402.097 216.105 402.01 216.308C401.927 216.533 401.919 216.782 401.985 217.056C402.054 217.352 402.109 217.627 402.148 217.88C402.202 218.226 402.056 218.426 401.71 218.479Z" fill="black"/>
<path d="M405.96 271.105C406.715 271.258 407.552 271.356 408.472 271.4C409.387 271.466 410.28 271.409 411.15 271.228C412.038 271.075 412.787 270.726 413.398 270.184C413.627 269.992 413.813 269.78 413.956 269.547C414.121 269.318 414.232 269.067 414.288 268.793C414.404 268.221 414.314 267.608 414.019 266.953C413.746 266.302 413.4 265.78 412.98 265.385C412.939 265.353 412.857 265.289 412.734 265.192C412.629 265.123 412.553 265.084 412.508 265.075L400.673 262.678C400.033 262.548 399.52 262.552 399.135 262.688C398.773 262.829 398.522 263.242 398.383 263.928C398.16 265.026 398.264 265.976 398.697 266.777C399.124 267.602 399.745 268.299 400.557 268.868C401.366 269.461 402.257 269.939 403.23 270.303C404.204 270.666 405.114 270.934 405.96 271.105ZM404.978 275.763C403.057 275.374 401.455 274.645 400.172 273.576C398.885 272.529 397.983 271.228 397.466 269.671C396.949 268.114 396.888 266.363 397.283 264.42C397.427 263.711 397.626 263.025 397.88 262.362C398.152 261.727 398.36 261.055 398.504 260.346C398.583 259.957 398.614 259.571 398.597 259.187C398.58 258.802 398.611 258.416 398.69 258.027C398.713 257.913 398.762 257.791 398.835 257.664C398.904 257.558 399.019 257.522 399.179 257.555C399.225 257.564 399.279 257.587 399.343 257.624C399.407 257.66 399.462 257.683 399.508 257.693C399.832 257.854 400.164 257.98 400.502 258.073C400.859 258.192 401.209 258.287 401.552 258.357L422.031 262.504C422.282 262.555 422.566 262.565 422.882 262.534C423.193 262.526 423.381 262.361 423.446 262.041C423.521 261.675 423.57 261.316 423.594 260.964C423.641 260.616 423.701 260.26 423.776 259.894C423.794 259.802 423.856 259.732 423.962 259.682C424.063 259.654 424.159 259.65 424.25 259.669C424.456 259.71 424.572 259.841 424.599 260.061C424.617 260.326 424.611 260.587 424.583 260.843C424.573 261.127 424.556 261.385 424.532 261.618C424.517 262.282 424.489 262.943 424.451 263.602C424.435 264.265 424.456 264.924 424.513 265.578C424.522 265.771 424.533 265.951 424.546 266.121C424.577 266.317 424.577 266.496 424.544 266.656C424.507 266.839 424.403 266.996 424.234 267.129C424.082 267.289 423.903 267.348 423.698 267.306L414.813 265.506C415.072 266.225 415.229 266.972 415.287 267.745C415.362 268.546 415.325 269.312 415.176 270.044C414.828 271.759 414.142 273.084 413.118 274.019C412.117 274.959 410.9 275.558 409.467 275.815C408.052 276.1 406.555 276.083 404.978 275.763Z" fill="black"/>
<path d="M370.122 330.519C369.963 330.42 369.885 330.235 369.889 329.964C369.844 329.195 369.924 328.558 370.127 328.053C370.331 327.548 370.629 326.978 371.023 326.344C371.404 325.729 371.988 325.363 372.775 325.246C373.549 325.148 374.245 325.222 374.862 325.466C374.425 324.4 374.234 323.336 374.289 322.273C374.352 321.242 374.691 320.231 375.306 319.24C376.487 317.336 377.76 316.258 379.125 316.004C380.51 315.763 382.136 316.219 384.002 317.372L385.996 318.605C387.029 319.243 388.051 319.875 389.063 320.5C390.083 321.158 391.109 321.806 392.141 322.444C392.359 322.579 392.616 322.696 392.911 322.796C393.206 322.896 393.446 322.797 393.63 322.5C393.704 322.381 393.768 322.256 393.822 322.125C393.863 322.013 393.921 321.898 393.995 321.779C394.081 321.64 394.199 321.494 394.35 321.34C394.5 321.186 394.664 321.164 394.843 321.275C395.002 321.373 395.093 321.47 395.115 321.566C395.126 321.682 395.104 321.806 395.05 321.937C394.974 322.192 394.866 322.455 394.726 322.725C394.586 322.995 394.458 323.245 394.343 323.475C393.805 324.652 393.319 325.901 392.883 327.223C392.849 327.366 392.801 327.488 392.74 327.587C392.568 327.864 392.353 327.923 392.095 327.764C390.388 326.709 388.683 325.628 386.981 324.521C385.298 323.426 383.604 322.352 381.897 321.297C381.42 321.002 380.908 320.699 380.36 320.388C379.819 320.109 379.278 319.897 378.735 319.754C378.18 319.631 377.653 319.661 377.154 319.847C376.654 320.032 376.208 320.442 375.814 321.076C375.396 321.75 375.273 322.524 375.445 323.399C375.636 324.285 375.93 325.029 376.326 325.63C376.353 325.674 376.418 325.769 376.52 325.915C376.642 326.072 376.713 326.157 376.732 326.169C378.32 327.151 379.904 328.116 381.485 329.065C383.073 330.047 384.651 331.022 386.219 331.991C386.437 332.126 386.694 332.243 386.988 332.343C387.283 332.443 387.523 332.345 387.708 332.047C387.781 331.928 387.845 331.803 387.899 331.672C387.953 331.541 388.023 331.406 388.109 331.267C388.195 331.128 388.314 330.982 388.464 330.828C388.602 330.694 388.761 330.682 388.939 330.792C389.098 330.89 389.189 330.988 389.211 331.084C389.222 331.2 389.2 331.324 389.146 331.455C389.07 331.71 388.962 331.972 388.822 332.242C388.682 332.512 388.548 332.772 388.421 333.023C387.891 334.231 387.416 335.46 386.998 336.71C386.981 336.782 386.96 336.838 386.935 336.878C386.918 336.949 386.891 337.015 386.854 337.074C386.67 337.372 386.449 337.441 386.191 337.281C384.027 335.944 381.86 334.591 379.689 333.222C377.538 331.865 375.37 330.512 373.187 329.163C372.988 329.04 372.754 328.909 372.484 328.769C372.233 328.642 371.972 328.576 371.7 328.572C371.447 328.581 371.235 328.724 371.063 329.002C370.927 329.22 370.842 329.469 370.806 329.748C370.789 330.04 370.732 330.265 370.634 330.424C370.572 330.523 370.489 330.568 370.385 330.558C370.289 330.581 370.201 330.568 370.122 330.519Z" fill="black"/>
<path d="M329.512 374.875C329.454 374.801 329.408 374.704 329.373 374.583C329.352 374.481 329.332 374.379 329.311 374.277C329.138 373.259 329.189 372.243 329.464 371.231C329.735 370.251 330.166 369.325 330.756 368.451C331.347 367.578 332.038 366.833 332.83 366.216C333.512 365.686 334.344 365.216 335.326 364.806C336.309 364.396 337.253 364.165 338.158 364.111C339.661 364.064 341.045 364.377 342.31 365.048C343.556 365.734 344.632 366.656 345.537 367.815C346.657 369.249 347.401 370.77 347.767 372.376C348.149 374.002 348.094 375.581 347.605 377.115C347.097 378.663 346.088 380.025 344.578 381.2C344.026 381.63 343.436 381.956 342.81 382.177C342.634 382.255 342.325 382.333 341.882 382.411C341.436 382.522 341.006 382.635 340.592 382.75C340.179 382.865 339.935 382.951 339.862 383.008C339.659 383.166 339.523 383.39 339.454 383.68C339.381 384.003 339.289 384.208 339.178 384.294C339.068 384.38 338.955 384.349 338.84 384.202C338.66 384.047 338.483 383.859 338.311 383.638C338.153 383.436 337.986 383.241 337.809 383.053C337.446 382.626 337.074 382.206 336.692 381.793C336.292 381.395 335.92 380.975 335.575 380.534C335.388 380.295 335.26 380.055 335.19 379.813C335.12 379.572 335.223 379.344 335.5 379.129C335.684 378.986 335.858 378.924 336.022 378.945C336.185 378.965 336.343 379.034 336.495 379.153C337.233 379.643 337.966 380.107 338.694 380.546C339.417 381.018 340.233 381.285 341.14 381.347C341.501 381.392 341.939 381.347 342.455 381.211C342.967 381.109 343.37 380.943 343.665 380.713C344.438 380.111 344.88 379.369 344.989 378.485C345.099 377.602 345.013 376.678 344.733 375.713C344.454 374.748 344.069 373.82 343.581 372.929C343.088 372.071 342.612 371.348 342.152 370.759C341.721 370.208 341.154 369.614 340.451 368.979C339.761 368.362 339.004 367.828 338.178 367.377C337.366 366.944 336.541 366.684 335.703 366.597C334.88 366.528 334.109 366.773 333.391 367.332C332.71 367.862 332.134 368.547 331.664 369.386C331.194 370.224 330.906 371.069 330.801 371.92C330.769 372.182 330.743 372.453 330.725 372.733C330.689 373.027 330.678 373.317 330.693 373.601C330.709 373.736 330.719 373.861 330.721 373.978C330.738 374.113 330.738 374.246 330.722 374.377C330.689 374.638 330.599 374.827 330.452 374.941C330.305 375.056 330.14 375.11 329.958 375.104C329.775 375.098 329.627 375.022 329.512 374.875Z" fill="black"/>
<path d="M278.46 403.679C278.694 404.413 279.015 405.229 279.424 406.127C279.817 407.055 280.312 407.914 280.906 408.705C281.501 409.495 282.191 410.084 282.976 410.471C283.745 410.888 284.63 410.937 285.631 410.62C286.543 410.33 287.185 409.808 287.556 409.053C287.928 408.299 288.131 407.439 288.166 406.473C288.179 405.514 288.092 404.55 287.906 403.581C287.727 402.634 287.531 401.827 287.318 401.16C287.084 400.427 286.771 399.596 286.377 398.668C285.968 397.77 285.467 396.925 284.872 396.135C284.277 395.345 283.587 394.756 282.803 394.368C282.018 393.981 281.125 393.946 280.124 394.264C279.19 394.561 278.534 395.075 278.155 395.807C277.761 396.569 277.554 397.418 277.534 398.355C277.522 399.314 277.616 400.263 277.817 401.203C278.026 402.165 278.24 402.99 278.46 403.679ZM273.87 404.953C273.324 403.241 273.228 401.595 273.581 400.014C273.942 398.455 274.68 397.082 275.795 395.896C276.889 394.716 278.292 393.854 280.004 393.311C281.717 392.767 283.356 392.687 284.924 393.071C286.491 393.454 287.869 394.204 289.057 395.32C290.223 396.443 291.075 397.85 291.614 399.539C292.174 401.296 292.306 402.979 292.012 404.591C291.724 406.224 291.041 407.653 289.961 408.877C288.889 410.123 287.464 411.029 285.684 411.594C283.727 412.215 281.976 412.331 280.431 411.94C278.871 411.579 277.542 410.789 276.444 409.571C275.33 408.382 274.472 406.843 273.87 404.953Z" fill="black"/>
</svg>
